Normalized EMG Linear Envelopes
nRows=198
nColumns=4

endheader
time	 med_gas_r	  soleus_r	 tib_ant_r	
3.72581	  0.008277	  0.007452	  0.002626	
3.75907	  0.008004	  0.007877	  0.002616	
3.79234	  0.007744	  0.008400	  0.002613	
3.8256	  0.007530	  0.008857	  0.002609	
3.85887	  0.007374	  0.009033	  0.002604	
3.89214	  0.007256	  0.008803	  0.002598	
3.9254	  0.007165	  0.008338	  0.002591	
3.95867	  0.007121	  0.007812	  0.002587	
3.99194	  0.007157	  0.007331	  0.002591	
4.0252	  0.007302	  0.006948	  0.002609	
4.05847	  0.007554	  0.006667	  0.002643	
4.09173	  0.007897	  0.006465	  0.002690	
4.125	  0.008302	  0.006285	  0.002740	
4.15827	  0.008734	  0.006078	  0.002790	
4.19153	  0.009108	  0.005812	  0.002838	
4.2248	  0.009304	  0.005468	  0.002887	
4.25806	  0.009286	  0.005053	  0.002945	
4.29133	  0.009136	  0.004650	  0.003018	
4.3246	  0.008937	  0.004381	  0.003116	
4.35786	  0.008714	  0.004433	  0.003240	
4.39113	  0.008448	  0.005059	  0.003381	
4.4244	  0.008151	  0.006541	  0.003523	
4.45766	  0.007873	  0.009214	  0.003630	
4.49093	  0.007735	  0.013420	  0.003657	
4.52419	  0.007862	  0.019420	  0.003597	
4.55746	  0.008338	  0.027269	  0.003498	
4.59073	  0.009186	  0.036665	  0.003391	
4.62399	  0.010379	  0.046694	  0.003283	
4.65726	  0.011847	  0.055549	  0.003160	
4.69052	  0.013438	  0.060306	  0.002993	
4.72379	  0.014872	  0.058709	  0.002739	
4.75706	  0.015704	  0.052093	  0.002350	
4.79032	  0.015583	  0.042719	  0.001779	
4.82359	  0.014767	  0.032709	  0.001001	
4.85685	  0.013635	  0.023494	  0.000037	
4.89012	  0.012476	  0.015819	 -0.001026	
4.92339	  0.011453	  0.009977	 -0.001994	
4.95665	  0.010644	  0.005975	 -0.002527	
4.98992	  0.010063	  0.003691	 -0.002104	
5.02319	  0.009672	  0.003023	 -0.000050	
5.05645	  0.009492	  0.003939	  0.004463	
5.08972	  0.009670	  0.006533	  0.012369	
5.12298	  0.010352	  0.010989	  0.024548	
5.15625	  0.011580	  0.017488	  0.041582	
5.18952	  0.013352	  0.026086	  0.063419	
5.22278	  0.015582	  0.036508	  0.088929	
5.25605	  0.018036	  0.047921	  0.115676	
5.28931	  0.020366	  0.058905	  0.140334	
5.32258	  0.022229	  0.067563	  0.160239	
5.35585	  0.023447	  0.071972	  0.174225	
5.38911	  0.024028	  0.072455	  0.182252	
5.42238	  0.024040	  0.070811	  0.184345	
5.45565	  0.023644	  0.068147	  0.179697	
5.48891	  0.022995	  0.064742	  0.168096	
5.52218	  0.022247	  0.060371	  0.151894	
5.55544	  0.021536	  0.054994	  0.135710	
5.58871	  0.020894	  0.049647	  0.122209	
5.62198	  0.020310	  0.045238	  0.112181	
5.65524	  0.019792	  0.042155	  0.105957	
5.68851	  0.019366	  0.040361	  0.103497	
5.72177	  0.019015	  0.039470	  0.103015	
5.75504	  0.018630	  0.038704	  0.101700	
5.78831	  0.018129	  0.037391	  0.098123	
5.82157	  0.017517	  0.035215	  0.092635	
5.85484	  0.016939	  0.032626	  0.086594	
5.8881	  0.016503	  0.030397	  0.081550	
5.92137	  0.016228	  0.028822	  0.077839	
5.95464	  0.016098	  0.027742	  0.074974	
5.9879	  0.016037	  0.026870	  0.072573	
6.02117	  0.015986	  0.025904	  0.070469	
6.05444	  0.015968	  0.024709	  0.068562	
6.0877	  0.015965	  0.023392	  0.067139	
6.12097	  0.016038	  0.022191	  0.066921	
6.15423	  0.016184	  0.021471	  0.068241	
6.1875	  0.016351	  0.021433	  0.070943	
6.22077	  0.016472	  0.022121	  0.074291	
6.25403	  0.016532	  0.023463	  0.077380	
6.2873	  0.016579	  0.025256	  0.079941	
6.32056	  0.016616	  0.027294	  0.082384	
6.35383	  0.016606	  0.029254	  0.084483	
6.3871	  0.016499	  0.030565	  0.085644	
6.42036	  0.016320	  0.030933	  0.085758	
6.45363	  0.016134	  0.030600	  0.085306	
6.4869	  0.015924	  0.029870	  0.084790	
6.52016	  0.015708	  0.028976	  0.084329	
6.55343	  0.015468	  0.028000	  0.083897	
6.58669	  0.015166	  0.027048	  0.084143	
6.61996	  0.014876	  0.026342	  0.085364	
6.65323	  0.014686	  0.026044	  0.087459	
6.68649	  0.014646	  0.026129	  0.090122	
6.71976	  0.014722	  0.026313	  0.093245	
6.75302	  0.014863	  0.026414	  0.096486	
6.78629	  0.015021	  0.026437	  0.098519	
6.81956	  0.015159	  0.026513	  0.098212	
6.85282	  0.015209	  0.026567	  0.096358	
6.88609	  0.015130	  0.026518	  0.094321	
6.91935	  0.014868	  0.026311	  0.092726	
6.95262	  0.014490	  0.026037	  0.092340	
6.98589	  0.014202	  0.025923	  0.093305	
7.01915	  0.014121	  0.025900	  0.094293	
7.05242	  0.014238	  0.025975	  0.093979	
7.08569	  0.014500	  0.026166	  0.092375	
7.11895	  0.014852	  0.026363	  0.089900	
7.15222	  0.015219	  0.026372	  0.086387	
7.18548	  0.015458	  0.026192	  0.082522	
7.21875	  0.015494	  0.025803	  0.078946	
7.25202	  0.015331	  0.025032	  0.075678	
7.28528	  0.015089	  0.024265	  0.072906	
7.31855	  0.014919	  0.023965	  0.070710	
7.35181	  0.014939	  0.024282	  0.068761	
7.38508	  0.015178	  0.025401	  0.067281	
7.41835	  0.015694	  0.027829	  0.067122	
7.45161	  0.016489	  0.031754	  0.068986	
7.48488	  0.017454	  0.036827	  0.072683	
7.51815	  0.018360	  0.042150	  0.076828	
7.55141	  0.018913	  0.046299	  0.080237	
7.58468	  0.018851	  0.047737	  0.083059	
7.61794	  0.018256	  0.046202	  0.086041	
7.65121	  0.017434	  0.042893	  0.089057	
7.68448	  0.016564	  0.038723	  0.091074	
7.71774	  0.015769	  0.034521	  0.092408	
7.75101	  0.015162	  0.031073	  0.094235	
7.78427	  0.014843	  0.028699	  0.096978	
7.81754	  0.014829	  0.027369	  0.101007	
7.85081	  0.015033	  0.026852	  0.106273	
7.88407	  0.015333	  0.026795	  0.112285	
7.91734	  0.015616	  0.026965	  0.117860	
7.9506	  0.015812	  0.027180	  0.121685	
7.98387	  0.015877	  0.027415	  0.123687	
8.01714	  0.015767	  0.027841	  0.124190	
8.0504	  0.015529	  0.028476	  0.123423	
8.08367	  0.015260	  0.029246	  0.122115	
8.11694	  0.015015	  0.030073	  0.120727	
8.1502	  0.014824	  0.030822	  0.118802	
8.18347	  0.014766	  0.031328	  0.116122	
8.21673	  0.014828	  0.031308	  0.112118	
8.25	  0.014941	  0.030890	  0.107016	
8.28327	  0.015061	  0.030481	  0.102197	
8.31653	  0.015150	  0.030188	  0.098607	
8.3498	  0.015198	  0.029985	  0.097013	
8.38306	  0.015195	  0.030050	  0.097534	
8.41633	  0.015113	  0.030382	  0.099734	
8.4496	  0.015000	  0.030846	  0.103575	
8.48286	  0.014968	  0.031369	  0.108760	
8.51613	  0.015019	  0.031919	  0.114407	
8.5494	  0.015131	  0.032483	  0.120026	
8.58266	  0.015269	  0.033042	  0.125192	
8.61593	  0.015368	  0.033657	  0.129193	
8.64919	  0.015358	  0.034498	  0.132489	
8.68246	  0.015290	  0.035715	  0.135968	
8.71573	  0.015292	  0.037129	  0.140191	
8.74899	  0.015426	  0.038622	  0.145074	
8.78226	  0.015681	  0.040363	  0.150258	
8.81552	  0.016047	  0.042332	  0.155416	
8.84879	  0.016535	  0.044362	  0.160343	
8.88206	  0.017183	  0.046062	  0.164516	
8.91532	  0.017976	  0.047128	  0.168140	
8.94859	  0.018825	  0.047953	  0.172021	
8.98185	  0.019569	  0.048787	  0.175804	
9.01512	  0.020045	  0.049629	  0.179167	
9.04839	  0.020296	  0.050611	  0.182627	
9.08165	  0.020431	  0.051767	  0.187277	
9.11492	  0.020547	  0.052792	  0.193102	
9.14819	  0.020774	  0.053407	  0.199899	
9.18145	  0.021199	  0.053745	  0.207496	
9.21472	  0.021826	  0.054308	  0.214927	
9.24798	  0.022646	  0.055475	  0.221126	
9.28125	  0.023670	  0.057590	  0.226858	
9.31452	  0.024840	  0.061048	  0.233908	
9.34778	  0.026011	  0.065748	  0.242658	
9.38105	  0.027154	  0.071323	  0.253265	
9.41431	  0.028308	  0.077660	  0.266913	
9.44758	  0.029334	  0.084438	  0.283774	
9.48085	  0.030194	  0.091257	  0.301833	
9.51411	  0.031070	  0.097782	  0.318239	
9.54738	  0.031985	  0.103757	  0.331333	
9.58065	  0.032892	  0.109055	  0.342829	
9.61391	  0.033679	  0.113542	  0.354071	
9.64718	  0.034458	  0.117559	  0.365814	
9.68044	  0.035452	  0.121660	  0.378811	
9.71371	  0.036729	  0.125674	  0.391293	
9.74698	  0.038176	  0.129457	  0.399283	
9.78024	  0.039420	  0.132697	  0.401405	
9.81351	  0.040326	  0.135307	  0.401323	
9.84677	  0.041099	  0.137911	  0.402777	
9.88004	  0.041676	  0.140369	  0.404012	
9.91331	  0.041815	  0.141665	  0.401168	
9.94657	  0.041360	  0.141335	  0.391185	
9.97984	  0.040201	  0.139148	  0.370230	
10.0131	  0.038125	  0.134245	  0.335831	
10.0464	  0.035385	  0.127434	  0.291550	
10.0796	  0.032637	  0.122137	  0.243640	
10.1129	  0.030256	  0.120667	  0.194765	
10.1462	  0.028323	  0.123644	  0.147318	
10.1794	  0.026947	  0.131200	  0.104974	
10.2127	  0.026127	  0.141913	  0.070160	
10.246	  0.025771	  0.153363	  0.043442	
10.2792	  0.025723	  0.163383	  0.024572	
